<svg width="1024" height="1024" viewBox="0 0 1024 1024" fill="none" xmlns="http://www.w3.org/2000/svg">
<path d="M512.676 168.314C714.458 168.314 875.804 323.567 875.804 512.398C875.804 701.229 714.458 856.482 512.676 856.482C310.895 856.482 149.548 701.229 149.548 512.398C149.548 323.567 310.895 168.314 512.676 168.314Z" stroke="#D9D9D9" style="stroke:#D9D9D9;stroke:color(display-p3 0.8510 0.8510 0.8510);stroke-opacity:1;" stroke-width="51.4081"/>
<path d="M684.264 121.419C719.732 78.6617 784.508 71.027 828.946 104.367L871.539 136.323C915.976 169.662 923.247 231.351 887.779 274.108C878.912 284.798 862.718 286.706 851.608 278.371L688.324 155.865C677.214 147.53 675.397 132.108 684.264 121.419Z" fill="#D9D9D9" style="fill:#D9D9D9;fill:color(display-p3 0.8510 0.8510 0.8510);fill-opacity:1;"/>
<path d="M339.736 121.419C304.268 78.6617 239.492 71.027 195.054 104.367L152.461 136.323C108.024 169.662 100.753 231.351 136.221 274.108C145.088 284.798 161.282 286.706 172.392 278.371L335.676 155.865C346.786 147.53 348.603 132.108 339.736 121.419Z" fill="#D9D9D9" style="fill:#D9D9D9;fill:color(display-p3 0.8510 0.8510 0.8510);fill-opacity:1;"/>
<path d="M212.835 917.837C206.636 914.433 204.586 906.773 208.256 900.728L279.377 783.576L301.826 795.902L230.705 913.054C227.035 919.099 219.034 921.241 212.835 917.837Z" fill="#D9D9D9" style="fill:#D9D9D9;fill:color(display-p3 0.8510 0.8510 0.8510);fill-opacity:1;"/>
<path d="M809.043 917.837C802.844 921.241 794.843 919.099 791.173 913.054L720.052 795.902L742.501 783.576L813.623 900.728C817.293 906.773 815.242 914.433 809.043 917.837Z" fill="#D9D9D9" style="fill:#D9D9D9;fill:color(display-p3 0.8510 0.8510 0.8510);fill-opacity:1;"/>
</svg>
