<svg width="1024" height="1024" viewBox="0 0 1024 1024" fill="none" xmlns="http://www.w3.org/2000/svg">
<path d="M415.838 248.819C438.971 236.117 467.277 236.882 489.034 250.796L512.006 265.488L532.561 252.343C555.791 237.488 585.454 236.346 609.214 249.392C648.05 270.716 656.632 321.151 620.771 348.284C569.426 387.131 531.301 404.572 512.006 512.012C493.521 403.711 454.912 384.949 402.568 345.845C367.935 319.972 376.997 270.145 415.838 248.819Z" fill="#D9D9D9" style="fill:#D9D9D9;fill:color(display-p3 0.8510 0.8510 0.8510);fill-opacity:1;"/>
<path d="M785.566 532.303C800.814 553.869 801.644 582.226 787.7 605.194C765.448 641.848 714.571 651.261 687.202 619.058C644.154 568.406 627.736 530.812 512 512.014C625.279 494.526 645.397 458.101 686.078 408.72C714.005 374.82 765.551 382.344 787.779 418.959C801.67 441.841 800.455 470.67 784.657 493.012L771.222 512.014L785.566 532.303Z" fill="#D9D9D9" style="fill:#D9D9D9;fill:color(display-p3 0.8510 0.8510 0.8510);fill-opacity:1;"/>
</svg>
